<svg width="29" height="22" viewBox="0 0 29 22" fill="none" xmlns="http://www.w3.org/2000/svg">
<path d="M2.38894 0C1.22957 0 0.28894 0.923828 0.28894 2.0625V15.8125C0.28894 16.9512 1.22957 17.875 2.38894 17.875H3.08894C3.08894 20.1523 4.97019 22 7.28894 22C9.60769 22 11.4889 20.1523 11.4889 17.875H17.0889C17.0889 20.1523 18.9702 22 21.2889 22C23.6077 22 25.4889 20.1523 25.4889 17.875H26.8889C27.6633 17.875 28.2889 17.2605 28.2889 16.5C28.2889 15.7395 27.6633 15.125 26.8889 15.125V12.375V11V10.1965C26.8889 9.46602 26.5958 8.76562 26.0708 8.25L22.6889 4.92852C22.1639 4.41289 21.4508 4.125 20.7071 4.125H18.4889V2.0625C18.4889 0.923828 17.5483 0 16.3889 0H2.38894ZM18.4889 6.875H20.7071L24.0889 10.1965V11H18.4889V6.875ZM5.18894 17.875C5.18894 17.328 5.41019 16.8034 5.80402 16.4166C6.19784 16.0298 6.73199 15.8125 7.28894 15.8125C7.84589 15.8125 8.38004 16.0298 8.77386 16.4166C9.16769 16.8034 9.38894 17.328 9.38894 17.875C9.38894 18.422 9.16769 18.9466 8.77386 19.3334C8.38004 19.7202 7.84589 19.9375 7.28894 19.9375C6.73199 19.9375 6.19784 19.7202 5.80402 19.3334C5.41019 18.9466 5.18894 18.422 5.18894 17.875ZM21.2889 15.8125C21.8459 15.8125 22.38 16.0298 22.7739 16.4166C23.1677 16.8034 23.3889 17.328 23.3889 17.875C23.3889 18.422 23.1677 18.9466 22.7739 19.3334C22.38 19.7202 21.8459 19.9375 21.2889 19.9375C20.732 19.9375 20.1978 19.7202 19.804 19.3334C19.4102 18.9466 19.1889 18.422 19.1889 17.875C19.1889 17.328 19.4102 16.8034 19.804 16.4166C20.1978 16.0298 20.732 15.8125 21.2889 15.8125Z" fill="black"/>
</svg>
